<svg xmlns="http://www.w3.org/2000/svg" width="200" height="200" viewBox="0 0 200 200">
  <rect width="200" height="200" fill="#f1f0ee"/>
  <g fill="none" stroke="#8a8278" stroke-width="1.5" stroke-linecap="round" opacity="0.7">
    <!-- Head -->
    <ellipse cx="100" cy="72" rx="30" ry="36"
      style="stroke-dasharray: 2 1; stroke-width: 1.8;"/>
    <!-- Hair suggestion -->
    <path d="M72 58 Q80 35 100 32 Q120 35 128 58" style="stroke-width: 1.2;"/>
    <path d="M70 62 Q68 50 75 40" style="stroke-width: 1;"/>
    <!-- Eyes -->
    <path d="M86 68 Q90 65 94 68" style="stroke-width: 1.3;"/>
    <path d="M106 68 Q110 65 114 68" style="stroke-width: 1.3;"/>
    <!-- Nose -->
    <path d="M100 72 L98 80 Q100 82 102 80" style="stroke-width: 1;"/>
    <!-- Mouth -->
    <path d="M92 88 Q100 93 108 88" style="stroke-width: 1.2;"/>
    <!-- Neck -->
    <path d="M92 106 L92 120" style="stroke-width: 1.3;"/>
    <path d="M108 106 L108 120" style="stroke-width: 1.3;"/>
    <!-- Shoulders -->
    <path d="M92 120 Q60 125 40 145 Q35 155 38 175" style="stroke-width: 1.8; stroke-dasharray: 3 2;"/>
    <path d="M108 120 Q140 125 160 145 Q165 155 162 175" style="stroke-width: 1.8; stroke-dasharray: 3 2;"/>
    <!-- Collar -->
    <path d="M92 120 L100 135 L108 120" style="stroke-width: 1.2;"/>
  </g>
</svg>