<svg xmlns="http://www.w3.org/2000/svg" width="200" height="200" viewBox="0 0 200 200">
  <rect width="200" height="200" fill="#f1f0ee"/>
  <g fill="none" stroke="#8a8278" stroke-width="1.5" stroke-linecap="round" opacity="0.7">
    <!-- Head -->
    <ellipse cx="100" cy="72" rx="29" ry="35"
      style="stroke-dasharray: 2 1; stroke-width: 1.8;"/>
    <!-- Hair - curly/wavy -->
    <path d="M72 62 Q74 38 88 30 Q100 26 112 30 Q126 38 128 62" style="stroke-width: 1.4;"/>
    <path d="M76 52 Q82 40 90 36" style="stroke-width: 0.9;"/>
    <path d="M110 36 Q118 40 124 52" style="stroke-width: 0.9;"/>
    <path d="M72 62 Q70 54 74 46" style="stroke-width: 0.9;"/>
    <!-- Glasses -->
    <rect x="80" y="62" width="16" height="12" rx="3" style="stroke-width: 1.1;"/>
    <rect x="104" y="62" width="16" height="12" rx="3" style="stroke-width: 1.1;"/>
    <path d="M96 68 L104 68" style="stroke-width: 1;"/>
    <!-- Nose -->
    <path d="M100 74 L98 82 Q100 84 102 82" style="stroke-width: 1;"/>
    <!-- Mouth -->
    <path d="M92 90 Q100 95 108 90" style="stroke-width: 1.2;"/>
    <!-- Neck -->
    <path d="M93 105 L93 120" style="stroke-width: 1.3;"/>
    <path d="M107 105 L107 120" style="stroke-width: 1.3;"/>
    <!-- Shoulders -->
    <path d="M93 120 Q60 126 42 148 Q36 158 38 178" style="stroke-width: 1.8; stroke-dasharray: 3 2;"/>
    <path d="M107 120 Q140 126 158 148 Q164 158 162 178" style="stroke-width: 1.8; stroke-dasharray: 3 2;"/>
    <!-- Collar -->
    <path d="M93 120 L100 134 L107 120" style="stroke-width: 1.2;"/>
  </g>
</svg>